<svg width="27" height="45" viewBox="0 0 27 45" fill="none" xmlns="http://www.w3.org/2000/svg">
<path fill-rule="evenodd" clip-rule="evenodd" d="M10.155 0.118607C8.527 0.352607 6.677 1.04359 5.328 1.91359C3.076 3.37359 0.991012 6.1726 0.256012 8.7476C0.033012 9.5056 0 9.8846 0 11.3116C0.011 13.2626 0.223015 14.2766 0.959015 15.7936C1.82901 17.6106 4.20301 20.3196 5.46301 20.9546C5.77501 21.1106 6.043 21.2446 6.065 21.2556C6.087 21.2666 5.887 21.8466 5.63 22.5376C4.103 26.6066 3.51202 29.4496 3.43402 33.1836C3.34502 36.8176 3.61201 38.5566 4.57101 40.5186C5.30701 42.0456 6.37699 43.1606 7.58099 43.7066C8.66199 44.1856 10.535 44.2526 11.884 43.8516C13.367 43.4056 14.247 42.7146 14.849 41.5106C15.195 40.7966 15.261 40.5296 15.306 39.7496C15.362 38.6016 15.172 37.8096 14.113 34.7996C12.653 30.6526 11.906 27.3866 11.694 24.2206L11.616 23.0836L12.497 23.3626C14.816 24.1096 16.833 24.3326 18.528 24.0316C22.831 23.2846 25.629 20.7876 26.644 16.7746C27.324 14.0876 27.045 11.7806 25.696 8.9706C23.99 5.4366 21.672 3.0956 18.205 1.4456C15.684 0.251602 12.674 -0.249393 10.155 0.118607ZM14.937 2.04659C18.415 2.92759 21.291 4.86659 23.131 7.56459C23.744 8.47859 24.536 10.1176 24.937 11.2876C25.584 13.2276 25.483 15.4346 24.636 17.5086C24.023 19.0246 22.919 20.3286 21.515 21.1646C20.356 21.8666 18.093 22.5136 16.788 22.5136H16.297L16.732 22.2016C18.181 21.1426 18.995 19.1586 18.861 17.0066C18.638 13.4396 16.776 10.8976 13.164 9.18059C11.191 8.24459 9.89801 8.06561 7.98001 8.46761C6.53101 8.75761 5.42702 9.3146 4.63602 10.1176C2.60702 12.2246 2.39501 14.7776 4.00101 17.9996L4.61401 19.2256L3.99002 18.5566C1.96102 16.3606 1.10301 14.5766 0.980011 12.2576C0.857011 9.68261 1.827 7.34161 3.979 5.06761C5.428 3.52961 7.15601 2.5146 9.19601 2.0016C10.433 1.6896 10.556 1.67861 12.262 1.72261C13.455 1.75661 14.079 1.83459 14.937 2.04659ZM11.37 9.9286L12.15 10.1856L11.37 10.3636C10.066 10.6646 5.406 12.6156 4.414 13.2736L4.035 13.5296L4.11301 13.1946C4.39201 12.0356 5.451 10.7646 6.565 10.2406C8.07 9.54959 9.887 9.4266 11.37 9.9286ZM14.034 11.3106C14.402 11.5786 14.837 11.9126 14.982 12.0356L15.249 12.2696L14.859 12.6826C13.833 13.7636 12.574 15.5476 11.961 16.7736C10.935 18.8136 10.534 20.4416 10.456 22.9166C10.333 26.7406 11.024 30.7086 12.652 35.5586C13.477 37.9996 13.655 38.7136 13.655 39.5046C13.655 40.2846 13.432 40.8426 12.897 41.3886C12.518 41.7786 11.548 42.2466 11.113 42.2466C10.834 42.2466 10.143 41.0646 9.742 39.8946C9.374 38.8466 9.21801 38.6346 8.92801 38.7466C8.70501 38.8356 8.68299 39.3036 8.80499 40.8536L8.86099 41.5226L8.40402 40.6306C7.51202 38.9246 6.999 36.2156 6.888 32.6266C6.821 30.3186 6.82102 30.2966 6.55402 30.1736C5.98502 29.9176 5.829 30.4076 5.629 33.0946C5.54 34.2986 5.54 35.1796 5.629 36.2826C5.729 37.5756 6.05302 39.6386 6.25302 40.3296C6.28602 40.4296 6.153 40.2406 5.974 39.9056C5.138 38.3896 4.84802 36.6946 4.84802 33.3286C4.84802 29.3266 5.495 25.8256 6.91 22.0136C7.646 20.0186 9.931 15.5036 11.013 13.8756C11.604 12.9946 13.231 10.8096 13.298 10.8096C13.321 10.8096 13.655 11.0326 14.034 11.3106ZM10.879 12.0246C10.288 12.8946 10.088 13.0946 9.285 13.6186C8.159 14.3546 6.00702 16.1046 5.22702 16.9076L4.65802 17.4986L4.36801 16.6286C4.21201 16.1606 4.045 15.4576 4 15.0786C3.933 14.4546 3.955 14.3766 4.134 14.3096C4.257 14.2646 4.62401 14.0646 4.95901 13.8636C5.96201 13.2506 10.968 11.0436 11.347 11.0316C11.504 11.0326 11.392 11.2556 10.879 12.0246ZM15.517 15.0676C15.495 16.1266 15.372 17.9436 15.261 19.0916C15.027 21.5106 15.094 21.3996 13.856 21.3996C13.265 21.3996 13.198 21.3776 13.265 21.1986C13.744 20.1176 14.235 17.8426 14.447 15.8256C14.57 14.6216 14.603 14.4986 15.015 13.8416C15.26 13.4626 15.494 13.1506 15.528 13.1506C15.55 13.1506 15.55 14.0196 15.517 15.0676ZM16.721 14.1646C17.39 15.4686 17.613 17.2636 17.278 18.5346C17.088 19.2706 16.654 20.1736 16.386 20.3966C16.219 20.5306 16.208 20.4746 16.297 19.5496C16.342 19.0036 16.386 17.4426 16.386 16.0716C16.386 14.7116 16.397 13.5966 16.408 13.5966C16.431 13.5966 16.565 13.8526 16.721 14.1646ZM8.315 16.5166C7.78 17.5756 7.17802 18.8246 6.97702 19.2816L6.60901 20.1176L6.06302 19.5266C5.13802 18.5236 5.037 18.7576 7.267 16.5616C8.348 15.4806 9.251 14.5996 9.263 14.5996C9.285 14.5996 8.851 15.4696 8.315 16.5166ZM13.142 18.3006C12.93 19.4266 12.763 20.4966 12.763 20.6976C12.763 21.2886 12.674 21.3996 12.195 21.3996C11.961 21.3996 11.76 21.3666 11.76 21.3106C11.782 20.4636 13.209 16.2716 13.477 16.2716C13.488 16.2716 13.343 17.1856 13.142 18.3006Z" fill="#2E2521"/>
<path fill-rule="evenodd" clip-rule="evenodd" d="M16.5542 9.6387C16.5542 9.7387 16.8332 10.1407 17.1672 10.5527C18.2592 11.8797 18.8172 13.1947 19.6202 16.3277C19.8432 17.1747 20.0772 17.9217 20.1552 17.9667C20.4002 18.1227 20.7792 18.0557 21.0252 17.7997C21.2372 17.5767 21.2482 17.4657 21.2032 16.7187C21.0692 14.8237 19.9882 12.2037 18.7952 10.8997C17.7802 9.79472 16.5542 9.1037 16.5542 9.6387Z" fill="#2E2521"/>
<path fill-rule="evenodd" clip-rule="evenodd" d="M19.6863 19.9286C19.2853 20.5526 19.2403 20.9096 19.5633 21.0096C19.9203 21.1216 20.1762 20.9767 20.4442 20.5077C20.7782 19.9167 20.7233 19.4596 20.3333 19.4156C20.0883 19.3816 19.9763 19.4716 19.6863 19.9286Z" fill="#2E2521"/>
</svg>
