<svg width="25" height="41" viewBox="0 0 25 41" fill="none" xmlns="http://www.w3.org/2000/svg">
<path fill-rule="evenodd" clip-rule="evenodd" d="M21.2329 0.439241C20.4107 0.62004 19.7433 1.02237 18.8685 1.86775C18.3661 2.35518 18.0182 2.75751 17.1012 3.93138C16.0858 5.21982 15.7697 5.5887 14.9441 6.45627C13.9921 7.45663 13.6757 7.72617 12.0423 8.92951C10.1241 10.3395 9.39706 11.1372 8.69431 12.5915C8.31142 13.3816 8.10406 13.9942 7.93199 14.8359C7.83367 15.3085 7.79491 16.534 7.86172 17.0473C7.98116 17.9887 8.31835 18.8155 8.92278 19.6609C9.19317 20.0337 9.7166 20.6132 10.033 20.8828C10.5599 21.3368 11.9159 22.2153 12.2358 22.3153C12.3237 22.3411 12.394 22.3818 12.394 22.4037C12.394 22.4259 12.2604 22.8209 12.099 23.2785C11.5334 24.866 11.066 26.4127 10.7607 27.7048C10.6904 27.9965 10.627 28.2584 10.6201 28.2843C10.599 28.3432 10.5498 28.3065 9.95957 27.8227C9.7311 27.6346 9.51681 27.4611 9.47837 27.4313C9.41156 27.3833 9.41155 27.376 9.52752 27.0697C9.7103 26.6008 9.76294 26.2836 9.78405 25.571C9.79823 25.0726 9.79098 24.8587 9.74182 24.5557C9.5978 23.6401 9.271 22.9093 8.77214 22.3888C8.2383 21.8275 7.59889 21.5434 6.52018 21.3884C4.98862 21.1705 4.47557 20.9308 3.60769 20.0225C3.28814 19.6904 3.04896 19.3913 2.74706 18.9519C2.06889 17.9661 1.73515 17.6453 1.38031 17.6526C1.03618 17.6562 0.811179 17.9221 0.603819 18.5532C0.463269 18.9963 0.386059 19.5463 0.255908 21.1483C0.224394 21.5139 0.167989 22.1523 0.126076 22.5696C0.0346865 23.4815 0.0170391 25.1352 0.0907809 25.615C0.231332 26.5193 0.561587 27.3501 1.05698 28.0551C1.30657 28.4058 1.95292 29.0999 2.29358 29.3803C2.98562 29.9489 3.5828 30.2996 4.23639 30.5211C4.83358 30.7241 5.06898 30.7721 5.438 30.7721C5.71564 30.7721 5.83161 30.7499 6.12311 30.6539C6.5621 30.5062 6.83626 30.377 6.94152 30.2774C6.98721 30.2294 7.03291 30.2108 7.04678 30.233C7.06443 30.2515 7.21537 30.4433 7.38397 30.6612C8.02338 31.4916 9.16858 32.6546 9.74497 33.0642L9.96619 33.2192L9.96966 33.5884C9.97313 34.6589 10.1909 36.1355 10.4827 37.0732C10.8445 38.2325 11.3925 39.1332 12.0284 39.6094C12.4885 39.9564 13.1982 40.2481 13.8131 40.3438C14.2662 40.414 14.4947 40.414 14.9337 40.3438C15.7417 40.2147 16.3811 39.8713 17.2241 39.107C18.6258 37.8371 19.1669 36.5563 19.0333 34.8212C18.9595 33.8874 18.6643 32.9903 18.1865 32.2777C17.8247 31.735 17.006 30.9671 16.2859 30.4986C15.8819 30.2366 15.2286 29.9078 14.8946 29.8009L14.6135 29.7121L14.5855 29.2876C14.5363 28.4349 14.6242 26.7034 14.7856 25.4117C14.8558 24.8395 15.0348 23.6765 15.1017 23.3408L15.1366 23.1636L15.2737 23.2153C15.3475 23.2411 15.6109 23.3077 15.8605 23.3593C18.0211 23.806 19.033 23.7875 19.9075 23.2855C20.6068 22.8832 21.3584 22.0785 21.8749 21.1738C22.5776 19.9447 22.7428 18.3685 22.4897 15.2787C22.4125 14.3187 22.3879 12.7832 22.4371 12.0117C22.5212 10.6901 22.6901 9.82986 23.2274 7.98048C23.7405 6.22713 23.9475 5.25624 24.025 4.25589C24.1479 2.74989 23.6913 1.29522 22.9255 0.737924C22.606 0.509111 22.3107 0.413082 21.861 0.398181C21.6158 0.391227 21.3874 0.405797 21.2329 0.439241ZM22.0866 1.08528C22.2095 1.10747 22.3712 1.15913 22.4484 1.19986C23.1861 1.5949 23.5656 2.94592 23.3724 4.50358C23.2599 5.38572 23.0878 6.10196 22.5609 7.8775C21.8689 10.1994 21.7564 10.9229 21.7564 12.9717C21.7598 14.0826 21.774 14.4482 21.8547 15.3711C22.0444 17.586 22.0129 18.7046 21.7387 19.8377C21.44 21.0705 20.5582 22.2702 19.6131 22.7391C19.1354 22.9716 19.016 22.9938 18.1727 22.9901C17.3189 22.9865 16.8973 22.9494 15.9314 22.7835C15.2885 22.6729 15.2359 22.658 15.2463 22.5878C15.2605 22.4918 15.3377 22.4954 15.7697 22.6173C16.5217 22.8275 17.5613 22.8792 18.2079 22.7355C18.6961 22.6285 19.1915 22.3 19.4726 21.9013C19.9926 21.1593 20.1296 20.1847 19.8416 19.2841C19.564 18.4128 18.8861 17.3608 18.1623 16.689C17.2698 15.8585 15.7767 15.1532 14.3434 14.8876C13.9605 14.8174 13.7636 14.8028 13.1314 14.8028C12.4252 14.8028 12.3549 14.8101 12.0319 14.9025C11.6279 15.0171 11.101 15.2681 10.7988 15.4969C10.4616 15.7479 10.1137 16.1615 9.94854 16.4972C9.76576 16.8701 9.70967 17.1102 9.70967 17.531C9.71314 18.6383 10.3387 19.9195 11.3468 20.8864C11.7612 21.2815 12.2566 21.6911 12.4428 21.7871C12.5519 21.846 12.5938 21.8904 12.5799 21.9235C12.5519 22.0083 12.4955 21.9901 12.1863 21.7944C11.4732 21.3404 10.4824 20.554 10.1064 20.1443C9.18245 19.144 8.71164 18.2284 8.50806 17.0509C8.41321 16.486 8.42013 15.3674 8.52224 14.8654C8.79641 13.5366 9.49885 12.2074 10.4616 11.1998C10.9113 10.7272 11.3856 10.3434 12.5169 9.53846C14.3122 8.25764 14.8111 7.82187 15.974 6.49667C16.6203 5.76222 16.782 5.5589 17.734 4.31483C18.57 3.22209 18.9321 2.79758 19.4272 2.31776C20.3055 1.46509 20.8604 1.17337 21.8267 1.05151C21.8478 1.05184 21.9634 1.06674 22.0866 1.08528ZM12.8469 15.3492C12.8399 15.3565 12.643 15.4969 12.4113 15.6555C11.5857 16.2277 10.8795 16.9069 10.3948 17.586C10.2719 17.7595 10.1559 17.9145 10.1348 17.9367C10.1137 17.9589 10.1067 17.8261 10.1171 17.5638C10.1313 17.2022 10.1452 17.1284 10.2435 16.9069C10.5772 16.1575 11.343 15.5853 12.2742 15.3932C12.5027 15.3452 12.8787 15.3158 12.8469 15.3492ZM13.9325 15.3932C13.9571 15.4005 13.8235 15.5704 13.6199 15.7846C13.2124 16.2128 12.3061 17.2834 11.9055 17.8075C11.5227 18.3059 11.326 18.6049 11.0169 19.1476L10.7499 19.6202L10.6059 19.3655C10.5252 19.2251 10.402 18.9668 10.3355 18.7897L10.2092 18.4648L10.5744 17.9628C11.263 17.0069 11.8989 16.3903 12.9915 15.6224L13.3955 15.3346L13.6413 15.3568C13.7778 15.3674 13.9079 15.3823 13.9325 15.3932ZM14.744 15.5595L15.0742 15.6406L14.9444 15.7512C14.6809 15.9727 13.7604 17.0837 13.1774 17.881C12.6927 18.5493 12.3272 19.1658 11.9865 19.9003C11.8072 20.2917 11.6459 20.6126 11.6282 20.6126C11.586 20.6126 10.9888 19.9592 10.9888 19.9149C10.9888 19.8963 11.0065 19.8669 11.0238 19.8559C11.0449 19.845 11.1713 19.6308 11.3118 19.3834C11.6771 18.7301 11.8668 18.442 12.3061 17.8625C13.1951 16.6996 14.2839 15.4336 14.3718 15.4631C14.3964 15.4707 14.5612 15.5115 14.744 15.5595ZM15.5028 15.7995L15.58 15.8217L15.471 16.0211C15.4111 16.1317 15.211 16.4936 15.0248 16.8221C14.0727 18.5165 13.4191 19.8231 12.9732 20.9271C12.8434 21.252 12.7236 21.5288 12.7098 21.5474C12.6887 21.5732 12.0773 21.0639 11.9824 20.942C11.9509 20.8977 11.979 20.8351 12.1299 20.6023C12.2317 20.4437 12.3688 20.1778 12.4321 20.0116C12.7589 19.1476 13.219 18.3946 14.2379 17.0509C14.7963 16.3164 15.3059 15.733 15.3692 15.7552C15.3976 15.7697 15.4571 15.7883 15.5028 15.7995ZM17.3684 16.8072C17.4387 16.8552 17.4387 16.8588 17.2877 17.3794C17.0735 18.1065 16.9083 18.8115 16.8135 19.3764C16.7467 19.7861 16.7363 19.9854 16.7363 20.7238C16.7363 21.3033 16.7539 21.7133 16.7924 21.9566L16.845 22.3186L16.5428 22.2964C16.1142 22.2633 15.401 22.16 15.3695 22.1302C15.3342 22.0934 15.5769 21.1778 15.8331 20.3914C16.2966 18.948 17.1822 16.6777 17.2559 16.7294C17.277 16.7443 17.3262 16.7777 17.3684 16.8072ZM18.0006 17.3685C18.0113 17.387 17.9971 17.5161 17.9656 17.6526C17.9057 17.9406 17.8181 18.6973 17.7863 19.2288C17.7406 19.9301 17.8635 20.8126 18.1166 21.6503C18.1938 21.9013 18.2464 22.1192 18.2325 22.1338C18.1799 22.1891 17.7759 22.2778 17.4879 22.3L17.1891 22.3222L17.1084 21.6431C16.9364 20.1665 17.0382 19.2066 17.5793 17.2244L17.6353 17.0287L17.8074 17.1837C17.9023 17.2648 17.9902 17.3499 18.0006 17.3685ZM18.4714 17.9516L18.5908 18.1142L18.5804 18.5609C18.5663 19.2549 18.6892 19.9784 18.9703 20.8755L19.1177 21.3407L18.9841 21.5288C18.9139 21.6321 18.7944 21.7689 18.7207 21.8278L18.5871 21.9388L18.4607 21.4884C18.299 20.9199 18.2042 20.499 18.1481 20.0785C18.0989 19.7205 18.092 18.3175 18.1342 17.8377L18.1623 17.5536L18.2571 17.6718C18.3097 17.7373 18.4046 17.8628 18.4714 17.9516ZM1.57317 18.1029C1.74177 18.2284 2.01941 18.5681 2.47605 19.2102C3.1435 20.148 3.70571 20.7053 4.38735 21.0891C4.85816 21.3586 5.34284 21.5027 6.33362 21.6835C7.42967 21.8792 7.90395 22.0931 8.38894 22.6063C8.85976 23.1047 9.10556 23.6438 9.24958 24.5001C9.33025 24.9726 9.30567 25.9249 9.20388 26.4269C9.09485 26.9511 9.0564 27.0803 9.0107 27.0617C8.95461 27.0432 8.96501 26.9511 9.05987 26.6852C9.15126 26.4157 9.15818 25.8879 9.07404 25.5408C8.92309 24.9206 8.50837 24.367 7.99565 24.1011C7.77064 23.9865 7.68303 23.9607 7.43345 23.9461C7.05402 23.9203 6.7975 23.9868 6.29864 24.2451C5.60313 24.6067 4.96373 25.3008 4.63 26.0501C4.42264 26.5226 4.36654 26.7922 4.36654 27.368C4.36654 27.8478 4.37348 27.8813 4.50363 28.276C4.84429 29.328 5.43454 29.7525 6.27784 29.5644C6.43604 29.5273 6.56935 29.5055 6.57659 29.5128C6.58006 29.5201 6.63646 29.6052 6.69949 29.7048L6.812 29.8783L6.71368 29.9191C6.47134 30.0188 5.85997 30.137 5.59652 30.137C5.35418 30.137 5.24514 30.1111 4.79544 29.9525C4.14185 29.7237 3.7766 29.5429 3.31997 29.229C2.80346 28.8747 2.58571 28.6936 2.15712 28.2545C1.68284 27.771 1.41245 27.3945 1.17358 26.8922C0.759176 26.0246 0.600982 25.1352 0.565687 23.4371C0.544573 22.3997 0.586797 21.4844 0.713167 20.2404C0.846785 18.9297 0.980094 18.3503 1.20857 18.1105C1.33431 17.9774 1.40111 17.9738 1.57317 18.1029ZM19.0862 18.9741C19.2161 19.2509 19.304 19.4983 19.3566 19.7384C19.4269 20.0632 19.4304 20.1261 19.3954 20.4288C19.3708 20.6096 19.3428 20.7795 19.3286 20.8053C19.2933 20.8606 19.0298 20.0447 18.8893 19.4506C18.8332 19.2069 18.7768 18.8675 18.7664 18.694L18.7453 18.3801L18.819 18.4725C18.8615 18.5238 18.981 18.7489 19.0862 18.9741ZM15.0812 18.9668C15.2356 19.0185 15.4184 19.1145 15.5202 19.1956C15.6185 19.2731 15.6957 19.3397 15.6957 19.3397C15.6957 19.3433 15.6112 19.55 15.506 19.8049C14.6488 21.898 14.062 24.3862 13.8093 27.0366C13.6898 28.3028 13.7355 30.3035 13.9253 31.8354C14.0589 32.9245 14.375 34.7702 14.5013 35.202C14.6242 35.6192 14.8877 35.7964 15.0916 35.6007C15.2498 35.4457 15.2425 35.3387 14.9898 33.4966C14.8035 32.1271 14.6948 31.1711 14.6561 30.5287L14.6315 30.13L14.7159 30.1558C14.8707 30.2039 15.6891 30.6469 15.9314 30.8092C16.5321 31.2191 17.3823 32.046 17.688 32.5185C18.0113 33.0205 18.2782 33.7367 18.3869 34.3828C18.4676 34.8775 18.4396 35.9 18.3308 36.3172C18.2921 36.4759 18.2291 36.6643 18.1972 36.7308C18.1377 36.849 18.1377 36.8305 18.1339 36.107C18.1304 35.2987 18.0847 34.9182 17.9231 34.3682C17.7545 33.8109 17.4523 33.3125 17.2802 33.3125C17.1573 33.3125 17.1573 33.4013 17.2906 33.689C17.3574 33.8404 17.4522 34.1099 17.4945 34.2907C17.5648 34.5897 17.5752 34.7116 17.5752 35.5457C17.5752 36.3984 17.5682 36.4944 17.4945 36.7825C17.3996 37.1517 17.1712 37.6686 16.9534 38.0266C16.746 38.355 16.4545 38.6653 16.3455 38.6653C16.3033 38.6653 16.1838 38.7243 16.082 38.7945C15.9803 38.8647 15.766 38.968 15.6008 39.0196C15.0459 39.2041 14.6664 39.1084 14.0551 38.6282C13.6196 38.2885 13.3174 37.8974 12.9379 37.1775C12.6534 36.6348 12.5654 36.9153 12.8043 37.6093C12.994 38.163 13.1837 38.4915 13.5666 38.92L13.8162 39.1968L13.6407 39.0676C13.3385 38.8498 12.7413 38.1928 12.5024 37.8199C12.0949 37.1739 11.9367 36.753 11.8173 36.0073C11.7574 35.6272 11.7259 35.5053 11.6837 35.498C11.5995 35.4795 11.5888 35.5609 11.6241 36.0113C11.712 37.1186 11.9191 37.7981 12.4463 38.6839C12.5834 38.9163 12.1406 38.4256 11.9651 38.1487C11.4801 37.3881 11.1886 36.4911 10.9639 35.048C10.8445 34.2692 10.813 32.8221 10.8971 31.8916C11.0834 29.8651 11.5891 27.4617 12.4498 24.5454C13.1982 22.0129 13.7989 20.2374 14.252 19.2003L14.3961 18.8791H14.6069C14.7301 18.8781 14.9233 18.9152 15.0812 18.9668ZM7.78797 24.4855C8.0092 24.5743 8.18505 24.7143 8.336 24.9322C8.4942 25.1574 8.65554 25.5044 8.68737 25.6852L8.71542 25.8256L8.54336 25.7223C8.22003 25.5302 7.98462 25.3643 7.75646 25.1796C7.45078 24.9322 7.01872 24.5262 7.01872 24.4855C7.01872 24.4007 7.57368 24.4007 7.78797 24.4855ZM7.10634 24.9544C7.55257 25.4084 7.96697 25.7445 8.39902 26.0028L8.73968 26.2057L8.73622 26.4458C8.73275 26.8594 8.73275 26.8594 8.33568 26.516C7.90363 26.1432 7.09909 25.3014 6.82492 24.9398C6.65979 24.7219 6.62827 24.663 6.67019 24.6335C6.69823 24.615 6.72628 24.6004 6.737 24.6004C6.74803 24.5997 6.91662 24.7587 7.10634 24.9544ZM5.59242 27.6823C5.73297 27.9849 5.96145 28.4389 6.09822 28.6899L6.34402 29.1439L6.13319 29.133L5.9189 29.1217L5.69421 28.6787C5.39199 28.0843 5.2234 27.6819 5.03369 27.0912L4.87202 26.6001L4.95269 26.4303L5.0299 26.264L5.18085 26.6958C5.26562 26.9329 5.4484 27.376 5.59242 27.6823ZM8.8982 27.7783C9.33719 28.129 9.75537 28.4171 10.1628 28.6422C10.3384 28.7419 10.4824 28.823 10.4896 28.8306C10.4966 28.8343 10.4616 29.0449 10.4124 29.2959C10.2331 30.2151 10.1137 31.0529 10.0119 32.0794L9.98731 32.3453L9.61829 32.0132C9.05609 31.5112 8.0445 30.4774 7.68241 30.0383C7.32756 29.6065 6.78993 28.8571 6.47385 28.3588L6.27375 28.0376L6.4039 27.7866C6.61819 27.3843 6.92387 26.9303 7.19079 26.6276L7.4366 26.3471L7.99155 26.923C8.29755 27.2392 8.70502 27.6233 8.8982 27.7783ZM5.13548 28.0959C5.20575 28.2508 5.34284 28.524 5.44116 28.7088C5.53948 28.8896 5.61322 29.0449 5.60282 29.0522C5.56753 29.0889 5.25145 28.8306 5.11815 28.6535C4.79482 28.2253 4.64386 27.6641 4.72453 27.1697C4.74565 27.0293 4.74911 27.0333 4.87927 27.4207C4.94954 27.6379 5.0652 27.9406 5.13548 28.0959Z" fill="#FCF6EC"/>
<path fill-rule="evenodd" clip-rule="evenodd" d="M22.4689 3.17831C22.4374 3.21507 22.381 3.40349 22.3391 3.59554C22.3003 3.7876 22.2196 4.16046 22.1597 4.42603C22.0334 5.00551 22.0227 5.26048 22.1244 5.36744C22.2193 5.46711 22.3072 5.45983 22.4371 5.34525C22.5634 5.23466 22.6198 5.05717 22.7216 4.43331C22.8269 3.7727 22.8096 3.32236 22.6655 3.1707C22.5953 3.09686 22.5354 3.10083 22.4689 3.17831Z" fill="#FCF6EC"/>
<path fill-rule="evenodd" clip-rule="evenodd" d="M21.2743 4.83926C21.2462 4.87602 21.1936 4.96112 21.1618 5.0237C21.0915 5.16775 21.0001 5.65484 21.0281 5.7363C21.0877 5.9171 21.2636 5.9724 21.418 5.8618C21.6181 5.71412 21.7025 5.18993 21.5655 4.92403C21.4923 4.7727 21.3622 4.73595 21.2743 4.83926Z" fill="#FCF6EC"/>
<path fill-rule="evenodd" clip-rule="evenodd" d="M21.9778 6.06888C21.876 6.15001 21.8023 6.32352 21.7389 6.62982C21.7002 6.81426 21.7002 6.85135 21.7531 6.93247C21.8303 7.05797 22.0131 7.06526 22.1149 6.94373C22.2132 6.82916 22.252 6.74439 22.2939 6.52651C22.343 6.28279 22.2974 6.09471 22.1744 6.03908C22.0657 5.98378 22.0796 5.98013 21.9778 6.06888Z" fill="#FCF6EC"/>
<path fill-rule="evenodd" clip-rule="evenodd" d="M20.7727 6.77731C20.6778 6.83625 20.6391 6.89188 20.4777 7.21275C20.2845 7.60415 20.0879 8.17999 20.0879 8.35714C20.0879 8.54556 20.2354 8.72636 20.3936 8.72636C20.5376 8.72636 20.7062 8.60086 20.7906 8.43463C20.9136 8.17635 21.2123 7.2091 21.2123 7.05778C21.212 6.80313 20.9766 6.65545 20.7727 6.77731Z" fill="#FCF6EC"/>
<path fill-rule="evenodd" clip-rule="evenodd" d="M21.5945 7.89581C21.4117 7.99912 21.0323 8.93325 21.0253 9.29121C21.0219 9.42035 21.0395 9.48691 21.0921 9.54221C21.187 9.63824 21.3663 9.64188 21.4857 9.55313C21.6789 9.40545 21.9565 8.61934 21.9635 8.19847C21.9669 8.0435 21.9528 8.00641 21.8686 7.92892C21.7561 7.82561 21.7208 7.82197 21.5945 7.89581Z" fill="#FCF6EC"/>
<path fill-rule="evenodd" clip-rule="evenodd" d="M20.1333 9.61277C19.9332 9.69754 19.8138 10.2883 19.9613 10.4582C20.0561 10.5651 20.2458 10.5615 20.3126 10.4509C20.3687 10.3585 20.4743 9.9598 20.4743 9.83794C20.4743 9.7492 20.3268 9.57568 20.2565 9.57966C20.2317 9.57933 20.1756 9.59423 20.1333 9.61277Z" fill="#FCF6EC"/>
<path fill-rule="evenodd" clip-rule="evenodd" d="M21.1417 10.6387C20.952 10.8381 20.9309 11.3215 21.1067 11.4212C21.2895 11.5245 21.4335 11.4027 21.4966 11.0964C21.5492 10.8159 21.5 10.6311 21.3491 10.5758C21.2504 10.5391 21.2293 10.5464 21.1417 10.6387Z" fill="#FCF6EC"/>
<path fill-rule="evenodd" clip-rule="evenodd" d="M20.101 11.8605C19.9781 11.9417 19.922 12.0748 19.8763 12.4178C19.8236 12.798 19.9324 13.0086 20.1785 13.0086C20.4139 13.0086 20.5403 12.7539 20.5544 12.2665C20.5614 12.0413 20.551 12.0042 20.4738 11.9231C20.3502 11.794 20.2308 11.7754 20.101 11.8605Z" fill="#FCF6EC"/>
<path fill-rule="evenodd" clip-rule="evenodd" d="M20.8988 12.2817C20.8497 12.3038 20.7829 12.3777 20.7513 12.4366C20.6669 12.588 20.6143 12.9535 20.6565 13.1049C20.7126 13.3264 20.9622 13.4482 21.1097 13.33C21.2152 13.2453 21.2571 13.1049 21.2748 12.7837C21.2924 12.4625 21.2924 12.4588 21.1834 12.3482C21.064 12.2224 21.0255 12.2115 20.8988 12.2817Z" fill="#FCF6EC"/>
<path fill-rule="evenodd" clip-rule="evenodd" d="M19.8663 13.6399C19.7749 13.6952 19.7012 13.8981 19.7012 14.0975C19.7012 14.5664 20.2 14.5515 20.2949 14.0789C20.3371 13.876 20.3229 13.8058 20.2177 13.6803C20.1405 13.5918 19.9753 13.5733 19.8663 13.6399Z" fill="#FCF6EC"/>
<path fill-rule="evenodd" clip-rule="evenodd" d="M20.7651 14.3188C20.6315 14.4184 20.5719 14.6509 20.5543 15.19C20.5439 15.4632 20.5439 15.7658 20.5578 15.8619C20.6211 16.2973 20.9759 16.3675 21.1657 15.9837C21.2359 15.8397 21.2605 15.238 21.2183 14.7655C21.1902 14.4516 21.1726 14.3853 21.1058 14.3297C21.0109 14.2489 20.8669 14.2449 20.7651 14.3188Z" fill="#FCF6EC"/>
<path fill-rule="evenodd" clip-rule="evenodd" d="M20.9729 17.1284C20.85 17.2172 20.7936 17.3685 20.734 17.7781C20.706 17.9884 20.6568 18.2357 20.6285 18.3318C20.5828 18.4794 20.5828 18.5238 20.6215 18.6086C20.734 18.8596 21.0501 18.7821 21.2014 18.4722C21.3665 18.1288 21.3911 17.3609 21.2436 17.1619C21.1626 17.0546 21.0851 17.0433 20.9729 17.1284Z" fill="#FCF6EC"/>
<path fill-rule="evenodd" clip-rule="evenodd" d="M1.07063 21.6467C0.940479 21.7537 0.891323 22.0418 0.912437 22.6063C0.937018 23.2855 1.04258 23.4848 1.36906 23.459C1.54459 23.4478 1.62905 23.1564 1.57989 22.7355C1.51308 22.1964 1.42547 21.7719 1.36906 21.6944C1.27799 21.5765 1.1762 21.562 1.07063 21.6467Z" fill="#FCF6EC"/>
<path fill-rule="evenodd" clip-rule="evenodd" d="M1.22918 23.924C1.02907 24.0088 1.0464 24.629 1.25029 24.7436C1.50681 24.8876 1.68581 24.6548 1.62972 24.2525C1.59095 23.9906 1.41543 23.8465 1.22918 23.924Z" fill="#FCF6EC"/>
<path fill-rule="evenodd" clip-rule="evenodd" d="M2.06138 24.5852C1.99803 24.6663 2.00875 24.9508 2.07902 25.0614C2.19499 25.2495 2.38123 25.2571 2.43386 25.0763C2.47262 24.9544 2.41969 24.6776 2.34248 24.5965C2.26149 24.5114 2.12472 24.5041 2.06138 24.5852Z" fill="#FCF6EC"/>
<path fill-rule="evenodd" clip-rule="evenodd" d="M1.54858 25.5304C1.43261 25.5894 1.38345 25.752 1.40803 25.9993C1.46759 26.5937 1.77705 26.9702 2.09313 26.8298C2.25826 26.7596 2.2652 26.6527 2.13536 26.2169C1.98788 25.7298 1.91761 25.5857 1.80164 25.5304C1.6926 25.4788 1.65068 25.4788 1.54858 25.5304Z" fill="#FCF6EC"/>
<path fill-rule="evenodd" clip-rule="evenodd" d="M3.04502 25.5633C2.9571 25.6557 2.96781 25.8143 3.08378 26.0543C3.28767 26.464 3.64598 26.6302 3.85649 26.4087C3.94095 26.3199 3.94789 26.1245 3.87068 26.01C3.84263 25.9656 3.70555 25.8292 3.57193 25.7073C3.30154 25.46 3.17518 25.4268 3.04502 25.5633Z" fill="#FCF6EC"/>
<path fill-rule="evenodd" clip-rule="evenodd" d="M2.41609 25.9991C2.35999 26.1173 2.37733 26.3054 2.46525 26.5047C2.59887 26.8037 2.77787 26.8922 2.93607 26.7408C3.07315 26.6044 3.01328 26.3312 2.78512 26.0431C2.67262 25.9067 2.47912 25.8809 2.41609 25.9991Z" fill="#FCF6EC"/>
<path fill-rule="evenodd" clip-rule="evenodd" d="M2.50409 27.4241C2.33203 27.6012 2.42688 27.9261 2.74643 28.2731C2.95725 28.4983 3.09434 28.5463 3.25569 28.4575C3.37166 28.3946 3.42082 28.2731 3.38553 28.1254C3.37135 28.0737 3.25915 27.9115 3.13625 27.7598C2.76029 27.3058 2.66198 27.2542 2.50409 27.4241Z" fill="#FCF6EC"/>
</svg>
