<svg width="27" height="16" viewBox="0 0 27 16" fill="none" xmlns="http://www.w3.org/2000/svg">
<path fill-rule="evenodd" clip-rule="evenodd" d="M26.4553 0.994629C26.4553 1.54691 26.0076 1.99463 25.4553 1.99463H9.041C8.48872 1.99463 8.041 1.54691 8.041 0.994629V0.994629C8.041 0.442344 8.48872 -0.00537109 9.041 -0.00537109H25.4553C26.0076 -0.00537109 26.4553 0.442344 26.4553 0.994629V0.994629ZM26.4553 8.0162C26.4553 8.56849 26.0076 9.0162 25.4553 9.0162H3.83301C3.28072 9.0162 2.83301 8.56849 2.83301 8.0162V8.0162C2.83301 7.46392 3.28072 7.0162 3.83301 7.0162H25.4553C26.0076 7.0162 26.4553 7.46392 26.4553 8.0162V8.0162ZM26.4553 14.9448C26.4553 15.4971 26.0076 15.9448 25.4553 15.9448H9.041C8.48872 15.9448 8.041 15.4971 8.041 14.9448V14.9448C8.041 14.3925 8.48872 13.9448 9.041 13.9448H25.4553C26.0076 13.9448 26.4553 14.3925 26.4553 14.9448V14.9448Z" fill="#FCF6EC"/>
</svg>
