<svg width="17" height="16" viewBox="0 0 17 16" fill="none" xmlns="http://www.w3.org/2000/svg">
<path fill-rule="evenodd" clip-rule="evenodd" d="M15.5952 15.1507C15.2047 15.5412 14.5716 15.5412 14.181 15.1507L1.03833 2.00804C0.647802 1.61752 0.647801 0.984352 1.03832 0.593827C1.42885 0.203302 2.06201 0.203301 2.45254 0.593824L15.5952 13.7365C15.9858 14.127 15.9858 14.7602 15.5952 15.1507Z" fill="#FCF6EC"/>
<path fill-rule="evenodd" clip-rule="evenodd" d="M1.03816 15.1507C1.42868 15.5412 2.06185 15.5412 2.45237 15.1507L15.5951 2.00804C15.9856 1.61752 15.9856 0.984352 15.5951 0.593827C15.2046 0.203302 14.5714 0.203301 14.1809 0.593825L1.03816 13.7365C0.647638 14.127 0.647637 14.7602 1.03816 15.1507Z" fill="#FCF6EC"/>
</svg>
