<svg width="123" height="30" viewBox="0 0 123 30" fill="none" xmlns="http://www.w3.org/2000/svg">
<g clip-path="url(#clip0_348_72)">
<path fill-rule="evenodd" clip-rule="evenodd" d="M15.891 0.0320678C15.2744 0.167667 14.7738 0.469412 14.1177 1.10345C13.7409 1.46902 13.48 1.77077 12.7922 2.65117C12.0307 3.6175 11.7936 3.89416 11.1744 4.54484C10.4604 5.29511 10.2231 5.49726 8.99804 6.39977C7.55937 7.45724 7.0141 8.05552 6.48704 9.14627C6.19987 9.73884 6.04435 10.1983 5.9153 10.8296C5.84156 11.184 5.81249 12.1031 5.8626 12.4881C5.95217 13.1941 6.20507 13.8143 6.6584 14.4483C6.86119 14.7279 7.25376 15.1626 7.49106 15.3647C7.88624 15.7052 8.90327 16.3641 9.14317 16.4391C9.20911 16.4585 9.26181 16.489 9.26181 16.5054C9.26181 16.522 9.1616 16.8183 9.04058 17.1615C8.61633 18.3521 8.26583 19.5122 8.0368 20.4812C7.98409 20.7 7.93658 20.8965 7.93139 20.9158C7.91555 20.96 7.87868 20.9325 7.43599 20.5696C7.26463 20.4286 7.10392 20.2984 7.07508 20.2761C7.02498 20.2401 7.02497 20.2346 7.11195 20.0049C7.24903 19.6532 7.28851 19.4153 7.30435 18.8809C7.31498 18.5071 7.30955 18.3467 7.27267 18.1194C7.16466 17.4327 6.91956 16.8846 6.54541 16.4942C6.14503 16.0733 5.66548 15.8602 4.85644 15.7439C3.70777 15.5805 3.32299 15.4007 2.67208 14.7195C2.43242 14.4704 2.25303 14.2461 2.0266 13.9166C1.51797 13.1772 1.26767 12.9366 1.00154 12.9421C0.743446 12.9448 0.574693 13.1442 0.419173 13.6176C0.31376 13.9499 0.255853 14.3624 0.15824 15.5639C0.134604 15.8381 0.0923004 16.3169 0.0608656 16.6298C-0.00767652 17.3138 -0.0209121 18.554 0.0343943 18.9139C0.139807 19.5921 0.387499 20.2152 0.759045 20.744C0.946235 21.007 1.431 21.5275 1.68649 21.7379C2.20552 22.1643 2.65341 22.4273 3.1436 22.5934C3.59149 22.7457 3.76804 22.7817 4.04481 22.7817C4.25304 22.7817 4.34002 22.7651 4.55864 22.693C4.88788 22.5823 5.09351 22.4854 5.17245 22.4107C5.20672 22.3747 5.24099 22.3607 5.25139 22.3774C5.26463 22.3913 5.37783 22.5351 5.50428 22.6985C5.98384 23.3214 6.84275 24.1936 7.27503 24.5008L7.44095 24.617L7.44356 24.8939C7.44616 25.6968 7.60947 26.8042 7.82833 27.5076C8.09967 28.377 8.51068 29.0525 8.98764 29.4097C9.33271 29.6699 9.86498 29.8887 10.3261 29.9605C10.666 30.0132 10.8373 30.0132 11.1666 29.9605C11.7726 29.8637 12.2521 29.6061 12.8844 29.0329C13.9357 28.0805 14.3415 27.1199 14.2413 25.8185C14.186 25.1182 13.9645 24.4454 13.6062 23.9109C13.3349 23.5039 12.7208 22.928 12.1808 22.5766C11.8778 22.3801 11.3878 22.1335 11.1373 22.0533L10.9264 21.9867L10.9054 21.6683C10.8685 21.0288 10.9345 19.7302 11.0555 18.7614C11.1082 18.3323 11.2424 17.46 11.2925 17.2082L11.3188 17.0754L11.4216 17.1141C11.4769 17.1335 11.6745 17.1834 11.8617 17.2221C13.4821 17.5572 14.241 17.5432 14.8969 17.1667C15.4214 16.865 15.9851 16.2615 16.3725 15.583C16.8995 14.6611 17.0234 13.479 16.8336 11.1616C16.7757 10.4417 16.7572 9.29007 16.7941 8.71141C16.8572 7.72025 16.9839 7.07503 17.3869 5.688C17.7717 4.37298 17.9269 3.64482 17.9851 2.89455C18.0773 1.76506 17.7348 0.674053 17.1605 0.25608C16.9208 0.0844698 16.6993 0.012448 16.3621 0.00127221C16.1782 -0.00394314 16.0068 0.00698441 15.891 0.0320678ZM16.5313 0.516599C16.6235 0.533239 16.7447 0.571981 16.8026 0.602529C17.3559 0.89881 17.6405 1.91208 17.4956 3.08032C17.4112 3.74192 17.2822 4.27911 16.887 5.61076C16.368 7.35219 16.2836 7.89484 16.2836 9.43138C16.2862 10.2646 16.2968 10.5388 16.3573 11.2309C16.4996 12.8921 16.476 13.7311 16.2704 14.5809C16.0463 15.5055 15.385 16.4053 14.6762 16.757C14.3179 16.9313 14.2283 16.948 13.5958 16.9452C12.9555 16.9425 12.6393 16.9147 11.9149 16.7902C11.4327 16.7073 11.3932 16.6961 11.401 16.6435C11.4117 16.5715 11.4696 16.5742 11.7936 16.6656C12.3576 16.8233 13.1373 16.862 13.6223 16.7542C13.9884 16.674 14.3599 16.4277 14.5708 16.1286C14.9607 15.5721 15.0635 14.8412 14.8475 14.1657C14.6393 13.5123 14.1309 12.7233 13.588 12.2194C12.9187 11.5965 11.7988 11.0675 10.7239 10.8683C10.4367 10.8157 10.289 10.8048 9.81487 10.8048C9.28521 10.8048 9.23251 10.8102 8.99024 10.8795C8.68724 10.9654 8.29206 11.1537 8.06539 11.3253C7.8125 11.5135 7.55156 11.8237 7.42772 12.0756C7.29063 12.3552 7.24856 12.5353 7.24856 12.8509C7.25116 13.6814 7.72032 14.6423 8.47641 15.3674C8.78722 15.6637 9.15876 15.9709 9.29844 16.043C9.38022 16.0872 9.41166 16.1204 9.40126 16.1453C9.38022 16.2089 9.33792 16.1952 9.10606 16.0484C8.57119 15.7079 7.8281 15.1181 7.54613 14.8109C6.85315 14.0606 6.50004 13.3739 6.34735 12.4908C6.27621 12.0671 6.28141 11.2282 6.35799 10.8517C6.56361 9.85507 7.09045 8.85819 7.8125 8.10246C8.14978 7.74806 8.50549 7.46022 9.35399 6.85648C10.7005 5.89587 11.0746 5.56904 11.9468 4.57514C12.4315 4.0243 12.5528 3.87181 13.2668 2.93876C13.8938 2.1192 14.1654 1.80082 14.5367 1.44096C15.1954 0.801457 15.6116 0.582661 16.3363 0.491268C16.3521 0.491516 16.4389 0.502692 16.5313 0.516599ZM9.60145 11.2145C9.59625 11.22 9.44853 11.3253 9.27481 11.4443C8.65557 11.8734 8.1259 12.3828 7.76239 12.8921C7.67022 13.0223 7.58324 13.1385 7.5674 13.1551C7.55157 13.1718 7.54637 13.0722 7.55416 12.8755C7.5648 12.6043 7.5752 12.5489 7.64894 12.3828C7.89924 11.8208 8.47357 11.3916 9.172 11.2476C9.34335 11.2116 9.62532 11.1895 9.60145 11.2145ZM10.4157 11.2476C10.4341 11.253 10.3339 11.3804 10.1812 11.5411C9.87562 11.8622 9.19587 12.6652 8.89547 13.0583C8.6083 13.4321 8.46081 13.6563 8.22895 14.0634L8.02876 14.4178L7.92075 14.2268C7.86024 14.1215 7.76783 13.9278 7.71796 13.7949L7.62319 13.5513L7.89712 13.1748C8.41355 12.4578 8.8905 11.9953 9.70993 11.4194L10.0129 11.2036L10.1973 11.2202C10.2996 11.2282 10.3972 11.2394 10.4157 11.2476ZM11.0243 11.3722L11.272 11.4331L11.1746 11.516C10.977 11.6822 10.2866 12.5154 9.84938 13.1134C9.48587 13.6146 9.2117 14.077 8.95621 14.6279C8.82172 14.9214 8.70071 15.1621 8.68748 15.1621C8.6558 15.1621 8.20792 14.6721 8.20792 14.6388C8.20792 14.6249 8.22115 14.6028 8.23415 14.5946C8.24999 14.5864 8.34477 14.4257 8.45018 14.2402C8.72411 13.7502 8.86639 13.5341 9.19587 13.0995C9.86262 12.2273 10.6792 11.2779 10.7452 11.3C10.7636 11.3057 10.8872 11.3362 11.0243 11.3722ZM11.5934 11.5523L11.6513 11.5689L11.5696 11.7184C11.5246 11.8014 11.3746 12.0728 11.2349 12.3192C10.5209 13.59 10.0307 14.57 9.69623 15.398C9.59885 15.6416 9.50904 15.8492 9.49864 15.8632C9.4828 15.8825 9.02428 15.5006 8.95313 15.4092C8.9295 15.3759 8.95054 15.329 9.06375 15.1544C9.14009 15.0354 9.2429 14.836 9.29041 14.7113C9.53551 14.0634 9.88058 13.4986 10.6447 12.4908C11.0635 11.94 11.4457 11.5024 11.4932 11.519C11.5145 11.5299 11.5591 11.5438 11.5934 11.5523ZM12.9926 12.308C13.0453 12.344 13.0453 12.3468 12.9321 12.7372C12.7714 13.2825 12.6476 13.8113 12.5764 14.235C12.5263 14.5422 12.5185 14.6917 12.5185 15.2455C12.5185 15.6801 12.5317 15.9876 12.5606 16.1701L12.6 16.4416L12.3734 16.4249C12.0519 16.4001 11.5171 16.3226 11.4934 16.3003C11.467 16.2727 11.649 15.586 11.8411 14.9962C12.1888 13.9136 12.8529 12.2109 12.9083 12.2497C12.9241 12.2608 12.961 12.2859 12.9926 12.308ZM13.4668 12.729C13.4748 12.7429 13.4641 12.8397 13.4405 12.9421C13.3956 13.1581 13.3299 13.7256 13.306 14.1242C13.2718 14.6502 13.3639 15.3121 13.5537 15.9404C13.6116 16.1286 13.6511 16.2921 13.6407 16.303C13.6012 16.3445 13.2982 16.411 13.0822 16.4277L12.8581 16.4443L12.7976 15.9349C12.6686 14.8275 12.7449 14.1076 13.1507 12.6209L13.1928 12.4742L13.3219 12.5904C13.393 12.6512 13.459 12.7151 13.4668 12.729ZM13.8199 13.1663L13.9094 13.2883L13.9016 13.6233C13.891 14.1438 13.9832 14.6865 14.194 15.3593L14.3046 15.7082L14.2044 15.8492C14.1517 15.9267 14.0621 16.0293 14.0068 16.0735L13.9066 16.1567L13.8118 15.8189C13.6906 15.3925 13.6194 15.0769 13.5774 14.7615C13.5405 14.493 13.5353 13.4407 13.567 13.0809L13.588 12.8678L13.6591 12.9565C13.6986 13.0056 13.7698 13.0998 13.8199 13.1663ZM1.14619 13.2798C1.27264 13.3739 1.48087 13.6287 1.82334 14.1103C2.32394 14.8136 2.74559 15.2316 3.25682 15.5194C3.60993 15.7216 3.97344 15.8296 4.71653 15.9652C5.53856 16.112 5.89427 16.2724 6.25802 16.6574C6.61113 17.0311 6.79548 17.4355 6.90349 18.0777C6.964 18.4321 6.94556 19.1463 6.86922 19.5228C6.78744 19.916 6.75861 20.0128 6.72434 19.9989C6.68227 19.985 6.69007 19.916 6.76121 19.7166C6.82975 19.5144 6.83495 19.1185 6.77184 18.8583C6.65863 18.3931 6.34759 17.9779 5.96304 17.7784C5.79429 17.6925 5.72858 17.6731 5.54139 17.6622C5.25683 17.6428 5.06443 17.6928 4.69029 17.8865C4.16866 18.1577 3.6891 18.6782 3.43881 19.2402C3.28329 19.5946 3.24122 19.7968 3.24122 20.2287C3.24122 20.5885 3.24642 20.6136 3.34403 20.9096C3.59953 21.6986 4.04221 22.017 4.67469 21.876C4.79334 21.8481 4.89332 21.8318 4.89875 21.8372C4.90135 21.8427 4.94366 21.9065 4.99093 21.9813L5.07531 22.1114L5.00157 22.1419C4.81981 22.2167 4.36129 22.3054 4.16369 22.3054C3.98194 22.3054 3.90016 22.286 3.56289 22.167C3.0727 21.9954 2.79876 21.8598 2.45629 21.6244C2.06891 21.3587 1.90559 21.2228 1.58415 20.8935C1.22844 20.5309 1.02565 20.2485 0.846494 19.8718C0.535691 19.2211 0.417045 18.554 0.390574 17.2805C0.374738 16.5024 0.406407 15.816 0.501184 14.8829C0.601397 13.8999 0.701379 13.4653 0.872734 13.2855C0.967039 13.1857 1.01714 13.183 1.14619 13.2798ZM14.281 13.9332C14.3784 14.1408 14.4443 14.3264 14.4838 14.5064C14.5365 14.7501 14.5391 14.7972 14.5128 15.0242C14.4944 15.1598 14.4734 15.2872 14.4627 15.3066C14.4363 15.3481 14.2387 14.7361 14.1333 14.2906C14.0912 14.1078 14.0489 13.8533 14.0411 13.7231L14.0252 13.4877L14.0806 13.557C14.1125 13.5955 14.202 13.7643 14.281 13.9332ZM11.2772 13.9278C11.393 13.9665 11.5301 14.0385 11.6064 14.0994C11.6802 14.1575 11.7381 14.2074 11.7381 14.2074C11.7381 14.2101 11.6747 14.3651 11.5958 14.5563C10.9529 16.1262 10.5128 17.9923 10.3233 19.9801C10.2337 20.9297 10.268 22.4303 10.4102 23.5792C10.5105 24.396 10.7475 25.7803 10.8423 26.1041C10.9345 26.417 11.1321 26.5499 11.285 26.4031C11.4036 26.2869 11.3982 26.2067 11.2086 24.8251C11.069 23.7979 10.9874 23.081 10.9583 22.5992L10.9399 22.3001L11.0033 22.3195C11.1193 22.3555 11.7331 22.6878 11.9149 22.8095C12.3653 23.117 13.003 23.7371 13.2323 24.0915C13.4748 24.468 13.675 25.0052 13.7565 25.4897C13.817 25.8607 13.796 26.6276 13.7144 26.9406C13.6854 27.0595 13.6381 27.2008 13.6142 27.2508C13.5696 27.3394 13.5696 27.3255 13.5667 26.7829C13.5641 26.1766 13.5299 25.8913 13.4086 25.4788C13.2822 25.0608 13.0555 24.687 12.9264 24.687C12.8343 24.687 12.8343 24.7536 12.9342 24.9694C12.9844 25.0829 13.0555 25.2851 13.0872 25.4207C13.1399 25.6449 13.1477 25.7363 13.1477 26.3619C13.1477 27.0014 13.1425 27.0734 13.0872 27.2895C13.016 27.5664 12.8447 27.9541 12.6814 28.2226C12.5258 28.4689 12.3072 28.7016 12.2254 28.7016C12.1938 28.7016 12.1042 28.7458 12.0278 28.7985C11.9515 28.8511 11.7908 28.9286 11.6669 28.9674C11.2507 29.1057 10.9661 29.0339 10.5076 28.6738C10.181 28.419 9.95432 28.1257 9.66976 27.5858C9.45633 27.1787 9.39039 27.3891 9.56954 27.9096C9.71182 28.3249 9.85411 28.5712 10.1413 28.8926L10.3285 29.1002L10.1968 29.0034C9.97016 28.84 9.52227 28.3472 9.34311 28.0676C9.03751 27.5831 8.91887 27.2674 8.82929 26.7081C8.78438 26.423 8.76074 26.3316 8.72907 26.3262C8.66597 26.3122 8.65793 26.3733 8.6844 26.7111C8.75035 27.5416 8.90563 28.0512 9.30105 28.7155C9.40386 28.8899 9.07178 28.5218 8.94014 28.3142C8.57639 27.7437 8.35777 27.071 8.18925 25.9886C8.09967 25.4045 8.07603 24.3192 8.13914 23.6214C8.27882 22.1015 8.65817 20.2989 9.30365 18.1117C9.86498 16.2123 10.3155 14.8807 10.6553 14.1028L10.7634 13.8619H10.9215C11.0139 13.8612 11.1588 13.889 11.2772 13.9278ZM5.80729 18.0668C5.97321 18.1333 6.1051 18.2384 6.21831 18.4018C6.33696 18.5707 6.45797 18.8309 6.48184 18.9665L6.50287 19.0718L6.37383 18.9944C6.13133 18.8503 5.95477 18.7259 5.78365 18.5873C5.55439 18.4018 5.23035 18.0973 5.23035 18.0668C5.23035 18.0032 5.64657 18.0032 5.80729 18.0668ZM5.29606 18.4184C5.63074 18.7589 5.94154 19.011 6.26557 19.2047L6.52107 19.3569L6.51847 19.537C6.51587 19.8472 6.51587 19.8472 6.21807 19.5897C5.89403 19.31 5.29062 18.6787 5.085 18.4075C4.96115 18.2441 4.93751 18.1999 4.96895 18.1778C4.98998 18.1639 5.01102 18.1529 5.01906 18.1529C5.02733 18.1524 5.15378 18.2717 5.29606 18.4184ZM4.16062 20.4643C4.26604 20.6913 4.43739 21.0318 4.53997 21.2201L4.72432 21.5606L4.5662 21.5524L4.40549 21.5439L4.23696 21.2116C4.0103 20.7658 3.88386 20.4641 3.74158 20.021L3.62033 19.6527L3.68083 19.5253L3.73873 19.4007L3.85195 19.7245C3.91553 19.9023 4.05261 20.2346 4.16062 20.4643ZM6.63996 20.5364C6.9692 20.7994 7.28284 21.0154 7.58844 21.1843C7.72009 21.2591 7.8281 21.3199 7.83354 21.3256C7.83873 21.3284 7.8125 21.4863 7.77563 21.6746C7.64115 22.364 7.55157 22.9923 7.47523 23.7622L7.45679 23.9616L7.18003 23.7125C6.75837 23.336 5.99968 22.5607 5.72811 22.2314C5.46198 21.9075 5.05876 21.3455 4.8217 20.9717L4.67162 20.7308L4.76923 20.5426C4.92995 20.2408 5.15921 19.9003 5.3594 19.6733L5.54376 19.463L5.95997 19.8949C6.18947 20.132 6.49508 20.4201 6.63996 20.5364ZM3.81792 20.7745C3.87062 20.8908 3.97344 21.0956 4.04718 21.2342C4.12092 21.3698 4.17623 21.4863 4.16843 21.4918C4.14196 21.5193 3.9049 21.3256 3.80492 21.1928C3.56242 20.8716 3.4492 20.4507 3.50971 20.0799C3.52554 19.9746 3.52814 19.9776 3.62576 20.2681C3.67846 20.4311 3.76521 20.6581 3.81792 20.7745Z" fill="#7D1920"/>
<path fill-rule="evenodd" clip-rule="evenodd" d="M16.8177 2.08649C16.7941 2.11406 16.7518 2.25537 16.7204 2.39942C16.6913 2.54346 16.6308 2.8231 16.5859 3.02228C16.4911 3.45689 16.4831 3.64812 16.5594 3.72834C16.6305 3.80309 16.6965 3.79763 16.7939 3.7117C16.8886 3.62875 16.9309 3.49563 17.0073 3.02774C17.0862 2.53228 17.0732 2.19453 16.9652 2.08078C16.9125 2.0254 16.8676 2.02838 16.8177 2.08649Z" fill="#7D1920"/>
<path fill-rule="evenodd" clip-rule="evenodd" d="M15.9219 3.33196C15.9009 3.35953 15.8614 3.42336 15.8375 3.47029C15.7848 3.57833 15.7163 3.94365 15.7373 4.00474C15.782 4.14034 15.9138 4.18182 16.0297 4.09887C16.1797 3.9881 16.2431 3.59497 16.1403 3.39554C16.0854 3.28204 15.9878 3.25448 15.9219 3.33196Z" fill="#7D1920"/>
<path fill-rule="evenodd" clip-rule="evenodd" d="M16.4498 4.25418C16.3734 4.31502 16.3181 4.44516 16.2706 4.67488C16.2416 4.81321 16.2416 4.84103 16.2813 4.90187C16.3392 4.996 16.4763 5.00146 16.5526 4.91032C16.6263 4.82439 16.6554 4.76081 16.6868 4.5974C16.7237 4.41461 16.6894 4.27355 16.5973 4.23183C16.5157 4.19035 16.5261 4.18762 16.4498 4.25418Z" fill="#7D1920"/>
<path fill-rule="evenodd" clip-rule="evenodd" d="M15.5458 4.78549C15.4747 4.82969 15.4456 4.87142 15.3246 5.11207C15.1797 5.40562 15.0322 5.8375 15.0322 5.97037C15.0322 6.11168 15.1428 6.24728 15.2615 6.24728C15.3695 6.24728 15.496 6.15315 15.5593 6.02848C15.6515 5.83477 15.8755 5.10934 15.8755 4.99584C15.8753 4.80486 15.6987 4.6941 15.5458 4.78549Z" fill="#7D1920"/>
<path fill-rule="evenodd" clip-rule="evenodd" d="M16.162 5.62486C16.0249 5.70234 15.7404 6.40294 15.7352 6.6714C15.7326 6.76826 15.7458 6.81818 15.7853 6.85965C15.8564 6.93168 15.9909 6.93441 16.0805 6.86785C16.2254 6.75709 16.4336 6.1675 16.4388 5.85185C16.4414 5.73562 16.4308 5.70781 16.3677 5.64969C16.2833 5.57221 16.2568 5.56947 16.162 5.62486Z" fill="#7D1920"/>
<path fill-rule="evenodd" clip-rule="evenodd" d="M15.0661 6.91259C14.916 6.97616 14.8264 7.41922 14.937 7.54662C15.0082 7.62684 15.1504 7.62411 15.2005 7.54116C15.2426 7.47187 15.3218 7.17286 15.3218 7.08146C15.3218 7.01491 15.2112 6.88477 15.1585 6.88775C15.1398 6.8875 15.0977 6.89868 15.0661 6.91259Z" fill="#7D1920"/>
<path fill-rule="evenodd" clip-rule="evenodd" d="M15.8226 7.68182C15.6803 7.83133 15.6645 8.19392 15.7964 8.26867C15.9334 8.34616 16.0415 8.25476 16.0887 8.02504C16.1282 7.81469 16.0913 7.67611 15.9781 7.63463C15.9041 7.60707 15.8883 7.61253 15.8226 7.68182Z" fill="#7D1920"/>
<path fill-rule="evenodd" clip-rule="evenodd" d="M15.042 8.59852C14.9498 8.65936 14.9078 8.7592 14.8735 9.01649C14.834 9.3016 14.9156 9.45955 15.1002 9.45955C15.2767 9.45955 15.3715 9.26856 15.3821 8.90299C15.3873 8.73411 15.3795 8.7063 15.3216 8.64545C15.229 8.5486 15.1394 8.53469 15.042 8.59852Z" fill="#7D1920"/>
<path fill-rule="evenodd" clip-rule="evenodd" d="M15.6402 8.91419C15.6033 8.93083 15.5532 8.98622 15.5296 9.03042C15.4662 9.14392 15.4268 9.4181 15.4584 9.53159C15.5005 9.69774 15.6877 9.78913 15.7983 9.70047C15.8775 9.63689 15.9089 9.53159 15.9222 9.29069C15.9354 9.04979 15.9354 9.04706 15.8536 8.96411C15.764 8.86974 15.7352 8.86154 15.6402 8.91419Z" fill="#7D1920"/>
<path fill-rule="evenodd" clip-rule="evenodd" d="M14.866 9.93235C14.7975 9.97382 14.7422 10.1261 14.7422 10.2756C14.7422 10.6273 15.1163 10.6161 15.1875 10.2617C15.2191 10.1095 15.2085 10.0568 15.1296 9.96265C15.0717 9.89634 14.9478 9.88243 14.866 9.93235Z" fill="#7D1920"/>
<path fill-rule="evenodd" clip-rule="evenodd" d="M15.5401 10.4418C15.4399 10.5166 15.3953 10.6909 15.382 11.0952C15.3742 11.3001 15.3742 11.5271 15.3846 11.5991C15.4321 11.9257 15.6983 11.9784 15.8405 11.6905C15.8933 11.5825 15.9117 11.1312 15.88 10.7768C15.859 10.5414 15.8457 10.4917 15.7956 10.45C15.7245 10.3894 15.6165 10.3864 15.5401 10.4418Z" fill="#7D1920"/>
<path fill-rule="evenodd" clip-rule="evenodd" d="M15.6959 12.5491C15.6037 12.6156 15.5614 12.7291 15.5167 13.0364C15.4957 13.1941 15.4588 13.3796 15.4375 13.4516C15.4033 13.5624 15.4033 13.5956 15.4323 13.6592C15.5167 13.8475 15.7538 13.7894 15.8672 13.5569C15.9911 13.2994 16.0095 12.7234 15.8989 12.5742C15.8381 12.4937 15.78 12.4853 15.6959 12.5491Z" fill="#7D1920"/>
<path fill-rule="evenodd" clip-rule="evenodd" d="M0.769159 15.938C0.671546 16.0182 0.634679 16.2342 0.650514 16.6577C0.66895 17.167 0.748122 17.3165 0.992983 17.2972C1.12463 17.2887 1.18797 17.0702 1.1511 16.7545C1.101 16.3502 1.03529 16.0318 0.992983 15.9737C0.924677 15.8853 0.848337 15.8744 0.769159 15.938Z" fill="#7D1920"/>
<path fill-rule="evenodd" clip-rule="evenodd" d="M0.888193 17.6456C0.73811 17.7092 0.751106 18.1743 0.904026 18.2603C1.09642 18.3683 1.23067 18.1937 1.1886 17.892C1.15952 17.6955 1.02788 17.5875 0.888193 17.6456Z" fill="#7D1920"/>
<path fill-rule="evenodd" clip-rule="evenodd" d="M1.51234 18.1413C1.46483 18.2021 1.47287 18.4154 1.52558 18.4984C1.61255 18.6394 1.75223 18.6452 1.7917 18.5096C1.82077 18.4182 1.78107 18.2105 1.72317 18.1497C1.66242 18.0859 1.55985 18.0804 1.51234 18.1413Z" fill="#7D1920"/>
<path fill-rule="evenodd" clip-rule="evenodd" d="M1.12762 18.8504C1.04064 18.8946 1.00378 19.0165 1.02221 19.202C1.06688 19.6478 1.29898 19.9302 1.53604 19.8249C1.65988 19.7722 1.66509 19.692 1.56771 19.3652C1.4571 18.9999 1.40439 18.8918 1.31741 18.8504C1.23564 18.8116 1.2042 18.8116 1.12762 18.8504Z" fill="#7D1920"/>
<path fill-rule="evenodd" clip-rule="evenodd" d="M2.2502 18.8751C2.18426 18.9444 2.19229 19.0634 2.27927 19.2434C2.43219 19.5506 2.70092 19.6753 2.8588 19.5092C2.92214 19.4426 2.92735 19.2961 2.86944 19.2102C2.8484 19.1769 2.74559 19.0746 2.64538 18.9832C2.44259 18.7976 2.34781 18.7728 2.2502 18.8751Z" fill="#7D1920"/>
<path fill-rule="evenodd" clip-rule="evenodd" d="M1.77813 19.202C1.73606 19.2906 1.74906 19.4317 1.815 19.5812C1.91522 19.8055 2.04947 19.8718 2.16812 19.7583C2.27093 19.656 2.22602 19.4511 2.0549 19.235C1.97053 19.1327 1.8254 19.1133 1.77813 19.202Z" fill="#7D1920"/>
<path fill-rule="evenodd" clip-rule="evenodd" d="M1.84426 20.2701C1.71521 20.403 1.78635 20.6466 2.02601 20.9069C2.18413 21.0758 2.28694 21.1118 2.40795 21.0452C2.49493 20.998 2.5318 20.9069 2.50533 20.7961C2.4947 20.7574 2.41055 20.6357 2.31837 20.5219C2.03641 20.1815 1.96267 20.1427 1.84426 20.2701Z" fill="#7D1920"/>
<path d="M32.6591 9.90909C32.5568 9.04545 32.142 8.375 31.4148 7.89773C30.6875 7.42045 29.7955 7.18182 28.7386 7.18182C27.9659 7.18182 27.2898 7.30682 26.7102 7.55682C26.1364 7.80682 25.6875 8.15057 25.3636 8.58807C25.0455 9.02557 24.8864 9.52273 24.8864 10.0795C24.8864 10.5455 24.9972 10.946 25.2188 11.2812C25.446 11.6108 25.7358 11.8864 26.0881 12.108C26.4403 12.3239 26.8097 12.5028 27.196 12.6449C27.5824 12.7812 27.9375 12.892 28.2614 12.9773L30.0341 13.4545C30.4886 13.5739 30.9943 13.7386 31.5511 13.9489C32.1136 14.1591 32.6506 14.446 33.1619 14.8097C33.679 15.1676 34.1051 15.6278 34.4403 16.1903C34.7756 16.7528 34.9432 17.4432 34.9432 18.2614C34.9432 19.2045 34.696 20.0568 34.2017 20.8182C33.7131 21.5795 32.9972 22.1847 32.054 22.6335C31.1165 23.0824 29.9773 23.3068 28.6364 23.3068C27.3864 23.3068 26.304 23.1051 25.3892 22.7017C24.4801 22.2983 23.7642 21.7358 23.2415 21.0142C22.7244 20.2926 22.4318 19.4545 22.3636 18.5H24.5455C24.6023 19.1591 24.8239 19.7045 25.2102 20.1364C25.6023 20.5625 26.0966 20.8807 26.6932 21.0909C27.2955 21.2955 27.9432 21.3977 28.6364 21.3977C29.4432 21.3977 30.1676 21.267 30.8097 21.0057C31.4517 20.7386 31.9602 20.3693 32.3352 19.8977C32.7102 19.4205 32.8977 18.8636 32.8977 18.2273C32.8977 17.6477 32.7358 17.1761 32.4119 16.8125C32.0881 16.4489 31.6619 16.1534 31.1335 15.9261C30.6051 15.6989 30.0341 15.5 29.4205 15.3295L27.2727 14.7159C25.9091 14.3239 24.8295 13.7642 24.0341 13.0369C23.2386 12.3097 22.8409 11.358 22.8409 10.1818C22.8409 9.20454 23.1051 8.35227 23.6335 7.625C24.1676 6.89205 24.8835 6.32386 25.7812 5.92045C26.6847 5.51136 27.6932 5.30682 28.8068 5.30682C29.9318 5.30682 30.9318 5.50852 31.8068 5.91193C32.6818 6.30966 33.375 6.85511 33.8864 7.54829C34.4034 8.24148 34.6761 9.02841 34.7045 9.90909H32.6591ZM38.477 15.125V23H36.4656V5.54545H38.477V11.9545H38.6474C38.9542 11.2784 39.4145 10.7415 40.0281 10.3438C40.6474 9.94034 41.4713 9.73864 42.4997 9.73864C43.3917 9.73864 44.173 9.91761 44.8434 10.2756C45.5139 10.6278 46.0338 11.1705 46.4031 11.9034C46.7781 12.6307 46.9656 13.5568 46.9656 14.6818V23H44.9542V14.8182C44.9542 13.7784 44.6843 12.9744 44.1446 12.4062C43.6105 11.8324 42.869 11.5455 41.9201 11.5455C41.2611 11.5455 40.6701 11.6847 40.1474 11.9631C39.6304 12.2415 39.2213 12.6477 38.9201 13.1818C38.6247 13.7159 38.477 14.3636 38.477 15.125ZM48.9653 23V9.90909H50.9085V11.8864H51.0448C51.2835 11.2386 51.7153 10.7131 52.3403 10.3097C52.9653 9.90625 53.6698 9.70454 54.4539 9.70454C54.6016 9.70454 54.7863 9.70739 55.0079 9.71307C55.2295 9.71875 55.3971 9.72727 55.5107 9.73864V11.7841C55.4426 11.767 55.2863 11.7415 55.042 11.7074C54.8034 11.6676 54.5505 11.6477 54.2835 11.6477C53.6471 11.6477 53.0789 11.7812 52.5789 12.0483C52.0846 12.3097 51.6926 12.6733 51.4028 13.1392C51.1187 13.5994 50.9766 14.125 50.9766 14.7159V23H48.9653ZM61.1347 23.2727C59.9529 23.2727 58.916 22.9915 58.0239 22.429C57.1376 21.8665 56.4444 21.0795 55.9444 20.0682C55.4501 19.0568 55.2029 17.875 55.2029 16.5227C55.2029 15.1591 55.4501 13.9687 55.9444 12.9517C56.4444 11.9347 57.1376 11.1449 58.0239 10.5824C58.916 10.0199 59.9529 9.73864 61.1347 9.73864C62.3165 9.73864 63.3506 10.0199 64.237 10.5824C65.129 11.1449 65.8222 11.9347 66.3165 12.9517C66.8165 13.9687 67.0665 15.1591 67.0665 16.5227C67.0665 17.875 66.8165 19.0568 66.3165 20.0682C65.8222 21.0795 65.129 21.8665 64.237 22.429C63.3506 22.9915 62.3165 23.2727 61.1347 23.2727ZM61.1347 21.4659C62.0324 21.4659 62.7711 21.2358 63.3506 20.7756C63.9302 20.3153 64.3591 19.7102 64.6376 18.9602C64.916 18.2102 65.0552 17.3977 65.0552 16.5227C65.0552 15.6477 64.916 14.8324 64.6376 14.0767C64.3591 13.321 63.9302 12.7102 63.3506 12.2443C62.7711 11.7784 62.0324 11.5455 61.1347 11.5455C60.237 11.5455 59.4984 11.7784 58.9188 12.2443C58.3393 12.7102 57.9103 13.321 57.6319 14.0767C57.3535 14.8324 57.2143 15.6477 57.2143 16.5227C57.2143 17.3977 57.3535 18.2102 57.6319 18.9602C57.9103 19.7102 58.3393 20.3153 58.9188 20.7756C59.4984 21.2358 60.237 21.4659 61.1347 21.4659ZM73.775 23.2727C72.5932 23.2727 71.5563 22.9915 70.6642 22.429C69.7779 21.8665 69.0847 21.0795 68.5847 20.0682C68.0904 19.0568 67.8432 17.875 67.8432 16.5227C67.8432 15.1591 68.0904 13.9687 68.5847 12.9517C69.0847 11.9347 69.7779 11.1449 70.6642 10.5824C71.5563 10.0199 72.5932 9.73864 73.775 9.73864C74.9568 9.73864 75.9909 10.0199 76.8773 10.5824C77.7693 11.1449 78.4625 11.9347 78.9568 12.9517C79.4568 13.9687 79.7068 15.1591 79.7068 16.5227C79.7068 17.875 79.4568 19.0568 78.9568 20.0682C78.4625 21.0795 77.7693 21.8665 76.8773 22.429C75.9909 22.9915 74.9568 23.2727 73.775 23.2727ZM73.775 21.4659C74.6728 21.4659 75.4114 21.2358 75.9909 20.7756C76.5705 20.3153 76.9995 19.7102 77.2779 18.9602C77.5563 18.2102 77.6955 17.3977 77.6955 16.5227C77.6955 15.6477 77.5563 14.8324 77.2779 14.0767C76.9995 13.321 76.5705 12.7102 75.9909 12.2443C75.4114 11.7784 74.6728 11.5455 73.775 11.5455C72.8773 11.5455 72.1387 11.7784 71.5591 12.2443C70.9796 12.7102 70.5506 13.321 70.2722 14.0767C69.9938 14.8324 69.8546 15.6477 69.8546 16.5227C69.8546 17.3977 69.9938 18.2102 70.2722 18.9602C70.5506 19.7102 70.9796 20.3153 71.5591 20.7756C72.1387 21.2358 72.8773 21.4659 73.775 21.4659ZM81.0972 23V9.90909H83.0403V11.9545H83.2108C83.4835 11.2557 83.9239 10.7131 84.5318 10.3267C85.1398 9.93466 85.8699 9.73864 86.7222 9.73864C87.5858 9.73864 88.3045 9.93466 88.8784 10.3267C89.458 10.7131 89.9097 11.2557 90.2335 11.9545H90.3699C90.7051 11.2784 91.208 10.7415 91.8784 10.3438C92.5489 9.94034 93.3528 9.73864 94.2903 9.73864C95.4608 9.73864 96.4182 10.1051 97.1625 10.8381C97.9068 11.5653 98.279 12.6989 98.279 14.2386V23H96.2676V14.2386C96.2676 13.2727 96.0034 12.5824 95.475 12.1676C94.9466 11.7528 94.3244 11.5455 93.6085 11.5455C92.6881 11.5455 91.975 11.8239 91.4693 12.3807C90.9636 12.9318 90.7108 13.6307 90.7108 14.4773V23H88.6653V14.0341C88.6653 13.2898 88.4239 12.6903 87.9409 12.2358C87.458 11.7756 86.8358 11.5455 86.0744 11.5455C85.5517 11.5455 85.0631 11.6847 84.6085 11.9631C84.1597 12.2415 83.796 12.6278 83.5176 13.1222C83.2449 13.6108 83.1085 14.1761 83.1085 14.8182V23H81.0972ZM109.549 12.8409L107.742 13.3523C107.629 13.0511 107.461 12.7585 107.24 12.4744C107.024 12.1847 106.728 11.946 106.353 11.7585C105.978 11.571 105.498 11.4773 104.913 11.4773C104.112 11.4773 103.444 11.6619 102.91 12.0312C102.382 12.3949 102.117 12.858 102.117 13.4205C102.117 13.9205 102.299 14.3153 102.663 14.6051C103.027 14.8949 103.595 15.1364 104.367 15.3295L106.311 15.8068C107.481 16.0909 108.353 16.5256 108.927 17.1108C109.501 17.6903 109.788 18.4375 109.788 19.3523C109.788 20.1023 109.572 20.7727 109.14 21.3636C108.714 21.9545 108.117 22.4205 107.35 22.7614C106.583 23.1023 105.691 23.2727 104.674 23.2727C103.339 23.2727 102.234 22.983 101.359 22.4034C100.484 21.8239 99.9299 20.9773 99.697 19.8636L101.606 19.3864C101.788 20.0909 102.132 20.6193 102.637 20.9716C103.149 21.3239 103.816 21.5 104.64 21.5C105.578 21.5 106.322 21.3011 106.873 20.9034C107.43 20.5 107.708 20.017 107.708 19.4545C107.708 19 107.549 18.6193 107.231 18.3125C106.913 18 106.424 17.767 105.765 17.6136L103.583 17.1023C102.384 16.8182 101.504 16.3778 100.941 15.7812C100.384 15.179 100.106 14.4261 100.106 13.5227C100.106 12.7841 100.313 12.1307 100.728 11.5625C101.149 10.9943 101.72 10.5483 102.441 10.2244C103.169 9.90057 103.992 9.73864 104.913 9.73864C106.208 9.73864 107.225 10.0227 107.964 10.5909C108.708 11.1591 109.237 11.9091 109.549 12.8409ZM112.431 27.9091C112.09 27.9091 111.786 27.8807 111.519 27.8239C111.252 27.7727 111.067 27.7216 110.965 27.6705L111.477 25.8977C111.965 26.0227 112.397 26.0682 112.772 26.0341C113.147 26 113.479 25.8324 113.769 25.5312C114.065 25.2358 114.334 24.7557 114.579 24.0909L114.954 23.0682L110.113 9.90909H112.295L115.908 20.3409H116.045L119.658 9.90909H121.84L116.283 24.9091C116.033 25.5852 115.724 26.1449 115.354 26.5881C114.985 27.0369 114.556 27.3693 114.067 27.5852C113.584 27.8011 113.039 27.9091 112.431 27.9091Z" fill="#7D1920"/>
</g>
<defs>
<clipPath id="clip0_348_72">
<rect width="123" height="30" fill="white"/>
</clipPath>
</defs>
</svg>
